<?xml version="1.0" encoding="UTF-8"?>
<svg width="160px" height="480px" viewBox="0 0 160 480" version="1.1" xmlns="http://www.w3.org/2000/svg" xmlns:xlink="http://www.w3.org/1999/xlink">
    <!-- Generator: Sketch 63.1 (92452) - https://sketch.com -->
    <title>black-wine</title>
    <desc>Created with Sketch.</desc>
    <g id="black-wine" stroke="none" stroke-width="1" fill="none" fill-rule="evenodd">
        <path d="M119.033025,138.712 C114.544025,134.204 112.017025,129.106 112.001025,122.744 L112.001025,8 C112.001025,3.582 108.419025,0 104.001025,0 L56.0010253,0 C51.5830253,0 48.0010253,3.582 48.0010253,8 L48.0010253,122.744 C47.9850253,129.106 45.4580253,135.204 40.9690253,139.712 C14.6510253,165.892 -0.0999747032,201.511 0,238.632 L0,456 C0,469.255 10.7460253,480 24.0010253,480 L136.001025,480 C149.256025,480 160.002071,469.255 160.002071,456 L160.002071,238.632 C160.103025,201.511 145.351025,164.892 119.033025,138.712 Z M64.0010253,16 L96.0010253,16 L96.0010253,80 L64.0010253,80 L64.0010253,16 Z M144.001025,456 C144.001025,460.418 140.419025,464 136.001025,464 L24.0010253,464 C19.5830253,464 16.0010253,460.418 16.0010253,456 L16.0010253,432 L144.001025,432 L144.001025,456 Z M144.001025,416 L16.0010253,416 L16.0010253,256 L144.001025,256 L144.001025,416 Z M144.001487,240 L16.0005633,240 L16.0005633,238.632 C15.9110253,205.756 28.9750253,174.211 52.2810253,151.024 C59.8070253,143.54 64.0270253,133.357 64.0010253,122.744 L64.0010253,96 L96.0010253,96 L96.0010253,122.744 C95.9750253,133.357 100.195025,143.54 107.721025,151.024 C131.027025,174.211 144.091025,205.756 144.001487,238.632 L144.001487,240 Z" fill="#000000" fill-rule="nonzero"></path>
    </g>
</svg>