<?xml version="1.0" encoding="UTF-8"?>
<svg width="160px" height="480px" viewBox="0 0 160 480" version="1.1" xmlns="http://www.w3.org/2000/svg" xmlns:xlink="http://www.w3.org/1999/xlink">
    <!-- Generator: Sketch 63.1 (92452) - https://sketch.com -->
    <title>Shape Copy</title>
    <desc>Created with Sketch.</desc>
    <g id="Page-1" stroke="none" stroke-width="1" fill="none" fill-rule="evenodd">
        <g id="wine-bottle" transform="translate(-258.000000, 0.000000)" fill="#FFFFFF" fill-rule="nonzero">
            <path d="M377.033025,139.712 C372.544025,135.204 370.017025,129.106 370.001025,122.744 L370.001025,8 C370.001025,3.582 366.419025,0 362.001025,0 L314.001025,0 C309.583025,0 306.001025,3.582 306.001025,8 L306.001025,122.744 C305.985025,129.106 303.458025,135.204 298.969025,139.712 C272.651025,165.892 257.900025,201.511 258.00051,238.632 L258.00051,456 C258.00051,469.255 268.746025,480 282.001025,480 L394.001025,480 C407.256025,480 418.001551,469.255 418.001551,456 L418.001551,238.632 C418.103025,201.511 403.351025,165.892 377.033025,139.712 Z M322.001025,16 L354.001025,16 L354.001025,80 L322.001025,80 L322.001025,16 Z M402.001025,456 C402.001025,460.418 398.419025,464 394.001025,464 L282.001025,464 C277.583025,464 274.001025,460.418 274.001025,456 L274.001025,432 L402.001025,432 L402.001025,456 Z M402.001025,416 L274.001025,416 L274.001025,256 L402.001025,256 L402.001025,416 Z M402.001487,240 L274.000563,240 L274.000563,238.632 C273.911025,205.756 286.975025,174.211 310.281025,151.024 C317.807025,143.54 322.027025,133.357 322.001025,122.744 L322.001025,96 L354.001025,96 L354.001025,122.744 C353.975025,133.357 358.195025,143.54 365.721025,151.024 C389.027025,174.211 402.091025,205.756 402.001487,238.632 L402.001487,240 Z" id="Shape-Copy"></path>
        </g>
    </g>
</svg>